# xmcd CD database file
#
# Track frame offsets:
#	150
#	15444
#	27197
#	41179
#	55275
#	69323
#	80693
#	95029
#	109670
#	123328
#	137793
#	152098
#	165491
#	179938
#	194232
#	209329
#	223904
#	237224
#
# Disc length: 3338 seconds
#
# Revision: 4
# Processed by: cddbd v1.5.2PL0 Copyright (c) Steve Scherf et al.
# Submitted via: CDex 1.51
#
DISCID=0e0d0812
DTITLE=Billie Holiday - Billy Holiday  [CD 10-10]
DYEAR=1900
DGENRE=Jazz
TTITLE0=Don't Explain
TTITLE1=You Better Go Now
TTITLE2=What Is This Thing Called Love ¿
TTITLE3=Good Morning Heartache
TTITLE4=No Good Man
TTITLE5=Big Stuff
TTITLE6=Baby I Don't Cry Over You
TTITLE7=I'll Look Around
TTITLE8=The Blues Are Brewin'
TTITLE9=Guilty
TTITLE10=Deep Song
TTITLE11=There Is No Greater Love
TTITLE12=Easy Living
TTITLE13=Solitude
TTITLE14=Weep No More
TTITLE15=Girls Were Made To Take Care Of Boys
TTITLE16=Porgy
TTITLE17=My Man
EXTD=
EXTT0=
EXTT1=
EXTT2=
EXTT3=
EXTT4=
EXTT5=
EXTT6=
EXTT7=
EXTT8=
EXTT9=
EXTT10=
EXTT11=
EXTT12=
EXTT13=
EXTT14=
EXTT15=
EXTT16=
EXTT17=
PLAYORDER=
